REM DIRINDEX 1\2\4,1\2\5,1\2\6,1\3\7,1\3\8,1\3\9,1\3\10
REM DIRNAME cjc057,folder01,folder02,folder03,folder04,folder05,folder06,folder07,folder08,folder09
TITLE ""
FILE "b_199.mp3" MP3
  TRACK 01 AUDIO
    TITLE "0:"
    INDEX 01 00:00:00
  TRACK 02 AUDIO
    TITLE "7:cjc057_10123"
    INDEX 01 00:00:13
  TRACK 03 AUDIO
    TITLE "0:"
    INDEX 01 00:01:46
  TRACK 04 AUDIO
    TITLE "8:cjc057_10124"
    INDEX 01 00:02:04
  TRACK 05 AUDIO
    TITLE "0:"
    INDEX 01 00:04:64
  TRACK 06 AUDIO
    TITLE "9:cjc057_10125"
    INDEX 01 00:05:32
  TRACK 07 AUDIO
    TITLE "0:"
    INDEX 01 00:09:22
  TRACK 08 AUDIO
    TITLE "7:cjc057_10126"
    INDEX 01 00:10:29
  TRACK 09 AUDIO
    TITLE "0:"
    INDEX 01 00:11:58
  TRACK 10 AUDIO
    TITLE "8:cjc057_10127"
    INDEX 01 00:12:14
  TRACK 11 AUDIO
    TITLE "0:"
    INDEX 01 00:13:45
  TRACK 12 AUDIO
    TITLE "9:cjc057_10128"
    INDEX 01 00:14:13
  TRACK 13 AUDIO
    TITLE "0:"
    INDEX 01 00:17:57
  TRACK 14 AUDIO
    TITLE "7:cjc057_10129"
    INDEX 01 00:18:66
  TRACK 15 AUDIO
    TITLE "0:"
    INDEX 01 00:20:28
  TRACK 16 AUDIO
    TITLE "8:cjc057_10130"
    INDEX 01 00:20:61
  TRACK 17 AUDIO
    TITLE "0:"
    INDEX 01 00:22:30
  TRACK 18 AUDIO
    TITLE "9:cjc057_10131"
    INDEX 01 00:22:74
  TRACK 19 AUDIO
    TITLE "0:"
    INDEX 01 00:25:39
  TRACK 20 AUDIO
    TITLE "7:cjc057_10132"
    INDEX 01 00:26:48
  TRACK 21 AUDIO
    TITLE "0:"
    INDEX 01 00:28:06
  TRACK 22 AUDIO
    TITLE "8:cjc057_10133"
    INDEX 01 00:28:39
  TRACK 23 AUDIO
    TITLE "0:"
    INDEX 01 00:31:67
  TRACK 24 AUDIO
    TITLE "9:cjc057_10134"
    INDEX 01 00:32:37
  TRACK 25 AUDIO
    TITLE "0:"
    INDEX 01 00:36:03
  TRACK 26 AUDIO
    TITLE "7:cjc057_10135"
    INDEX 01 00:37:12
  TRACK 27 AUDIO
    TITLE "0:"
    INDEX 01 00:38:28
  TRACK 28 AUDIO
    TITLE "8:cjc057_10136"
    INDEX 01 00:38:57
  TRACK 29 AUDIO
    TITLE "0:"
    INDEX 01 00:40:24
  TRACK 30 AUDIO
    TITLE "9:cjc057_10137"
    INDEX 01 00:40:68
  TRACK 31 AUDIO
    TITLE "0:"
    INDEX 01 00:44:40
  TRACK 32 AUDIO
    TITLE "7:cjc057_10138"
    INDEX 01 00:45:45
  TRACK 33 AUDIO
    TITLE "0:"
    INDEX 01 00:46:70
  TRACK 34 AUDIO
    TITLE "8:cjc057_10139"
    INDEX 01 00:47:28
  TRACK 35 AUDIO
    TITLE "0:"
    INDEX 01 00:50:09
  TRACK 36 AUDIO
    TITLE "9:cjc057_10140"
    INDEX 01 00:50:54
  TRACK 37 AUDIO
    TITLE "0:"
    INDEX 01 00:53:45
  TRACK 38 AUDIO
    TITLE "7:cjc057_10141"
    INDEX 01 00:54:52
  TRACK 39 AUDIO
    TITLE "0:"
    INDEX 01 00:55:61
  TRACK 40 AUDIO
    TITLE "8:cjc057_10142"
    INDEX 01 00:56:18
  TRACK 41 AUDIO
    TITLE "0:"
    INDEX 01 00:58:73
  TRACK 42 AUDIO
    TITLE "9:cjc057_10143"
    INDEX 01 00:59:38
  TRACK 43 AUDIO
    TITLE "0:"
    INDEX 01 01:02:48
  TRACK 44 AUDIO
    TITLE "7:cjc057_10144"
    INDEX 01 01:03:55
  TRACK 45 AUDIO
    TITLE "0:"
    INDEX 01 01:05:13
  TRACK 46 AUDIO
    TITLE "8:cjc057_10145"
    INDEX 01 01:05:40
  TRACK 47 AUDIO
    TITLE "0:"
    INDEX 01 01:08:09
  TRACK 48 AUDIO
    TITLE "9:cjc057_10146"
    INDEX 01 01:08:54
  TRACK 49 AUDIO
    TITLE "0:"
    INDEX 01 01:13:40
  TRACK 50 AUDIO
    TITLE "7:cjc057_10147"
    INDEX 01 01:14:47
  TRACK 51 AUDIO
    TITLE "0:"
    INDEX 01 01:15:58
  TRACK 52 AUDIO
    TITLE "8:cjc057_10148"
    INDEX 01 01:16:14
  TRACK 53 AUDIO
    TITLE "0:"
    INDEX 01 01:17:55
  TRACK 54 AUDIO
    TITLE "9:cjc057_10149"
    INDEX 01 01:18:23
  TRACK 55 AUDIO
    TITLE "0:"
    INDEX 01 01:21:49
  TRACK 56 AUDIO
    TITLE "7:cjc057_10150"
    INDEX 01 01:22:54
  TRACK 57 AUDIO
    TITLE "0:"
    INDEX 01 01:24:00
  TRACK 58 AUDIO
    TITLE "8:cjc057_10151"
    INDEX 01 01:24:32
  TRACK 59 AUDIO
    TITLE "0:"
    INDEX 01 01:27:63
  TRACK 60 AUDIO
    TITLE "9:cjc057_10152"
    INDEX 01 01:28:31
  TRACK 61 AUDIO
    TITLE "0:"
    INDEX 01 01:31:28
